<?xml version="1.0" encoding="UTF-8" standalone="no"?>
<!DOCTYPE svg PUBLIC "-//W3C//DTD SVG 1.1//EN"
 "http://www.w3.org/Graphics/SVG/1.1/DTD/svg11.dtd">
<!-- Generated by graphviz version 2.43.0 (0)
 -->
<!-- Title: %3 Pages: 1 -->
<svg width="736pt" height="2134pt"
 viewBox="0.00 0.00 736.44 2134.00" xmlns="http://www.w3.org/2000/svg" xmlns:xlink="http://www.w3.org/1999/xlink">
<g id="graph0" class="graph" transform="scale(1 1) rotate(0) translate(4 2130)">
<title>%3</title>
<!-- gex_levels.api_auth_schwab._schwab_refresh_token -->
<g id="node1" class="node">
<title>gex_levels.api_auth_schwab._schwab_refresh_token</title>
<ellipse fill="#757575" stroke="black" cx="621.2" cy="-758" rx="103.98" ry="18"/>
<text text-anchor="middle" x="621.2" y="-754.3" font-family="Arial" font-size="14.00" fill="white">_schwab_refresh_token</text>
</g>
<!-- gex_levels.api_auth_schwab.schwab_get -->
<g id="node2" class="node">
<title>gex_levels.api_auth_schwab.schwab_get</title>
<ellipse fill="#00c853" stroke="black" cx="373.32" cy="-758" rx="57.69" ry="18"/>
<text text-anchor="middle" x="373.32" y="-754.3" font-family="Arial" font-size="14.00" fill="white">schwab_get</text>
</g>
<!-- gex_levels.api_auth_schwab.schwab_get&#45;&gt;gex_levels.api_auth_schwab._schwab_refresh_token -->
<g id="edge1" class="edge">
<title>gex_levels.api_auth_schwab.schwab_get&#45;&gt;gex_levels.api_auth_schwab._schwab_refresh_token</title>
<path fill="none" stroke="#616161" d="M431.35,-758C453.99,-758 480.87,-758 507.14,-758"/>
<polygon fill="#616161" stroke="#616161" points="507.17,-761.5 517.17,-758 507.17,-754.5 507.17,-761.5"/>
</g>
<!-- gex_levels.api_auth_schwab.schwab_get.&lt;locals&gt;._request -->
<g id="node3" class="node">
<title>gex_levels.api_auth_schwab.schwab_get.&lt;locals&gt;._request</title>
<ellipse fill="#757575" stroke="black" cx="621.2" cy="-677" rx="44.69" ry="18"/>
<text text-anchor="middle" x="621.2" y="-673.3" font-family="Arial" font-size="14.00" fill="white">_request</text>
</g>
<!-- gex_levels.api_auth_schwab.schwab_get&#45;&gt;gex_levels.api_auth_schwab.schwab_get.&lt;locals&gt;._request -->
<g id="edge2" class="edge">
<title>gex_levels.api_auth_schwab.schwab_get&#45;&gt;gex_levels.api_auth_schwab.schwab_get.&lt;locals&gt;._request</title>
<path fill="none" stroke="#616161" d="M420.03,-747.22C438.19,-742.65 459.18,-736.99 477.96,-731 512.85,-719.87 551.67,-704.95 579.93,-693.62"/>
<polygon fill="#616161" stroke="#616161" points="581.5,-696.76 589.46,-689.77 578.88,-690.27 581.5,-696.76"/>
</g>
<!-- gex_levels.api_auth_tradier._load_api_key_tradier -->
<g id="node4" class="node">
<title>gex_levels.api_auth_tradier._load_api_key_tradier</title>
<ellipse fill="#757575" stroke="black" cx="116.34" cy="-650" rx="96.68" ry="18"/>
<text text-anchor="middle" x="116.34" y="-646.3" font-family="Arial" font-size="14.00" fill="white">_load_api_key_tradier</text>
</g>
<!-- gex_levels.black_scholes_calcs.bs_delta -->
<g id="node5" class="node">
<title>gex_levels.black_scholes_calcs.bs_delta</title>
<ellipse fill="#00c853" stroke="black" cx="116.34" cy="-704" rx="44.39" ry="18"/>
<text text-anchor="middle" x="116.34" y="-700.3" font-family="Arial" font-size="14.00" fill="white">bs_delta</text>
</g>
<!-- gex_levels.black_scholes_calcs.bs_gamma -->
<g id="node6" class="node">
<title>gex_levels.black_scholes_calcs.bs_gamma</title>
<ellipse fill="#00c853" stroke="black" cx="116.34" cy="-758" rx="55.49" ry="18"/>
<text text-anchor="middle" x="116.34" y="-754.3" font-family="Arial" font-size="14.00" fill="white">bs_gamma</text>
</g>
<!-- gex_levels.check_schwab_token.main -->
<g id="node7" class="node">
<title>gex_levels.check_schwab_token.main</title>
<ellipse fill="#00c853" stroke="black" cx="116.34" cy="-812" rx="30.59" ry="18"/>
<text text-anchor="middle" x="116.34" y="-808.3" font-family="Arial" font-size="14.00" fill="white">main</text>
</g>
<!-- gex_levels.check_schwab_token.token_age_days -->
<g id="node8" class="node">
<title>gex_levels.check_schwab_token.token_age_days</title>
<ellipse fill="#00c853" stroke="black" cx="373.32" cy="-812" rx="75.29" ry="18"/>
<text text-anchor="middle" x="373.32" y="-808.3" font-family="Arial" font-size="14.00" fill="white">token_age_days</text>
</g>
<!-- gex_levels.check_schwab_token.main&#45;&gt;gex_levels.check_schwab_token.token_age_days -->
<g id="edge3" class="edge">
<title>gex_levels.check_schwab_token.main&#45;&gt;gex_levels.check_schwab_token.token_age_days</title>
<path fill="none" stroke="#616161" d="M147.09,-812C181.37,-812 239.21,-812 287.69,-812"/>
<polygon fill="#616161" stroke="#616161" points="287.88,-815.5 297.88,-812 287.88,-808.5 287.88,-815.5"/>
</g>
<!-- gex_levels.compare_greeks_spx._refresh_schwab_token -->
<g id="node9" class="node">
<title>gex_levels.compare_greeks_spx._refresh_schwab_token</title>
<ellipse fill="#757575" stroke="black" cx="621.2" cy="-623" rx="103.98" ry="18"/>
<text text-anchor="middle" x="621.2" y="-619.3" font-family="Arial" font-size="14.00" fill="white">_refresh_schwab_token</text>
</g>
<!-- gex_levels.compare_greeks_spx.bs_delta_q -->
<g id="node10" class="node">
<title>gex_levels.compare_greeks_spx.bs_delta_q</title>
<ellipse fill="#00c853" stroke="black" cx="373.32" cy="-596" rx="53.89" ry="18"/>
<text text-anchor="middle" x="373.32" y="-592.3" font-family="Arial" font-size="14.00" fill="white">bs_delta_q</text>
</g>
<!-- gex_levels.compare_greeks_spx.bs_gamma_q -->
<g id="node11" class="node">
<title>gex_levels.compare_greeks_spx.bs_gamma_q</title>
<ellipse fill="#00c853" stroke="black" cx="373.32" cy="-542" rx="64.99" ry="18"/>
<text text-anchor="middle" x="373.32" y="-538.3" font-family="Arial" font-size="14.00" fill="white">bs_gamma_q</text>
</g>
<!-- gex_levels.compare_greeks_spx.fetch_schwab_chain -->
<g id="node12" class="node">
<title>gex_levels.compare_greeks_spx.fetch_schwab_chain</title>
<ellipse fill="#00c853" stroke="black" cx="373.32" cy="-650" rx="90.18" ry="18"/>
<text text-anchor="middle" x="373.32" y="-646.3" font-family="Arial" font-size="14.00" fill="white">fetch_schwab_chain</text>
</g>
<!-- gex_levels.compare_greeks_spx.fetch_schwab_chain&#45;&gt;gex_levels.api_auth_schwab.schwab_get.&lt;locals&gt;._request -->
<g id="edge4" class="edge">
<title>gex_levels.compare_greeks_spx.fetch_schwab_chain&#45;&gt;gex_levels.api_auth_schwab.schwab_get.&lt;locals&gt;._request</title>
<path fill="none" stroke="#616161" d="M452.79,-658.62C490.37,-662.74 534.35,-667.57 567.8,-671.25"/>
<polygon fill="#616161" stroke="#616161" points="567.5,-674.73 577.82,-672.35 568.26,-667.78 567.5,-674.73"/>
</g>
<!-- gex_levels.compare_greeks_spx.fetch_schwab_chain&#45;&gt;gex_levels.compare_greeks_spx._refresh_schwab_token -->
<g id="edge5" class="edge">
<title>gex_levels.compare_greeks_spx.fetch_schwab_chain&#45;&gt;gex_levels.compare_greeks_spx._refresh_schwab_token</title>
<path fill="none" stroke="#616161" d="M452.79,-641.38C475.08,-638.94 499.61,-636.24 522.87,-633.69"/>
<polygon fill="#616161" stroke="#616161" points="523.54,-637.14 533.09,-632.57 522.77,-630.18 523.54,-637.14"/>
</g>
<!-- gex_levels.compare_greeks_spx.fetch_schwab_chain.&lt;locals&gt;._request -->
<g id="node13" class="node">
<title>gex_levels.compare_greeks_spx.fetch_schwab_chain.&lt;locals&gt;._request</title>
<ellipse fill="#757575" stroke="black" cx="116.34" cy="-866" rx="44.69" ry="18"/>
<text text-anchor="middle" x="116.34" y="-862.3" font-family="Arial" font-size="14.00" fill="white">_request</text>
</g>
<!-- gex_levels.compare_greeks_spx.get_spot -->
<g id="node14" class="node">
<title>gex_levels.compare_greeks_spx.get_spot</title>
<ellipse fill="#00c853" stroke="black" cx="373.32" cy="-704" rx="44.39" ry="18"/>
<text text-anchor="middle" x="373.32" y="-700.3" font-family="Arial" font-size="14.00" fill="white">get_spot</text>
</g>
<!-- gex_levels.compare_greeks_spx.main -->
<g id="node15" class="node">
<title>gex_levels.compare_greeks_spx.main</title>
<ellipse fill="#00c853" stroke="black" cx="116.34" cy="-596" rx="30.59" ry="18"/>
<text text-anchor="middle" x="116.34" y="-592.3" font-family="Arial" font-size="14.00" fill="white">main</text>
</g>
<!-- gex_levels.compare_greeks_spx.main&#45;&gt;gex_levels.compare_greeks_spx.bs_delta_q -->
<g id="edge6" class="edge">
<title>gex_levels.compare_greeks_spx.main&#45;&gt;gex_levels.compare_greeks_spx.bs_delta_q</title>
<path fill="none" stroke="#616161" d="M147.09,-596C186.62,-596 257.49,-596 309.21,-596"/>
<polygon fill="#616161" stroke="#616161" points="309.28,-599.5 319.28,-596 309.28,-592.5 309.28,-599.5"/>
</g>
<!-- gex_levels.compare_greeks_spx.main&#45;&gt;gex_levels.compare_greeks_spx.bs_gamma_q -->
<g id="edge7" class="edge">
<title>gex_levels.compare_greeks_spx.main&#45;&gt;gex_levels.compare_greeks_spx.bs_gamma_q</title>
<path fill="none" stroke="#616161" d="M145.6,-590.01C185.31,-581.6 258.64,-566.08 311.15,-554.95"/>
<polygon fill="#616161" stroke="#616161" points="311.97,-558.36 321.03,-552.86 310.52,-551.51 311.97,-558.36"/>
</g>
<!-- gex_levels.compare_greeks_spx.main&#45;&gt;gex_levels.compare_greeks_spx.fetch_schwab_chain -->
<g id="edge8" class="edge">
<title>gex_levels.compare_greeks_spx.main&#45;&gt;gex_levels.compare_greeks_spx.fetch_schwab_chain</title>
<path fill="none" stroke="#616161" d="M145.6,-601.99C182.74,-609.85 249.27,-623.94 300.69,-634.83"/>
<polygon fill="#616161" stroke="#616161" points="300.25,-638.31 310.76,-636.96 301.7,-631.47 300.25,-638.31"/>
</g>
<!-- gex_levels.compare_greeks_spx.main&#45;&gt;gex_levels.compare_greeks_spx.get_spot -->
<g id="edge9" class="edge">
<title>gex_levels.compare_greeks_spx.main&#45;&gt;gex_levels.compare_greeks_spx.get_spot</title>
<path fill="none" stroke="#616161" d="M147.25,-597.01C172.09,-599.17 207.33,-605.42 232.68,-623 256.38,-639.44 245.18,-660.27 268.68,-677 283.62,-687.64 302.43,-694.09 319.92,-698"/>
<polygon fill="#616161" stroke="#616161" points="319.53,-701.49 330.02,-700.02 320.9,-694.62 319.53,-701.49"/>
</g>
<!-- gex_levels.fetch_massive_data.fetch_massive -->
<g id="node16" class="node">
<title>gex_levels.fetch_massive_data.fetch_massive</title>
<ellipse fill="#00c853" stroke="black" cx="116.34" cy="-920" rx="67.69" ry="18"/>
<text text-anchor="middle" x="116.34" y="-916.3" font-family="Arial" font-size="14.00" fill="white">fetch_massive</text>
</g>
<!-- gex_levels.fetch_schwab_data._parse_chain_response -->
<g id="node17" class="node">
<title>gex_levels.fetch_schwab_data._parse_chain_response</title>
<ellipse fill="#757575" stroke="black" cx="373.32" cy="-974" rx="104.78" ry="18"/>
<text text-anchor="middle" x="373.32" y="-970.3" font-family="Arial" font-size="14.00" fill="white">_parse_chain_response</text>
</g>
<!-- gex_levels.fetch_schwab_data.fetch_schwab_chain -->
<g id="node18" class="node">
<title>gex_levels.fetch_schwab_data.fetch_schwab_chain</title>
<ellipse fill="#00c853" stroke="black" cx="116.34" cy="-974" rx="90.18" ry="18"/>
<text text-anchor="middle" x="116.34" y="-970.3" font-family="Arial" font-size="14.00" fill="white">fetch_schwab_chain</text>
</g>
<!-- gex_levels.fetch_schwab_data.fetch_schwab_chain&#45;&gt;gex_levels.fetch_schwab_data._parse_chain_response -->
<g id="edge10" class="edge">
<title>gex_levels.fetch_schwab_data.fetch_schwab_chain&#45;&gt;gex_levels.fetch_schwab_data._parse_chain_response</title>
<path fill="none" stroke="#616161" d="M206.88,-974C223.55,-974 241.18,-974 258.47,-974"/>
<polygon fill="#616161" stroke="#616161" points="258.6,-977.5 268.6,-974 258.6,-970.5 258.6,-977.5"/>
</g>
<!-- gex_levels.fetch_schwab_data.fetch_schwab_quote_close -->
<g id="node19" class="node">
<title>gex_levels.fetch_schwab_data.fetch_schwab_quote_close</title>
<ellipse fill="#00c853" stroke="black" cx="116.34" cy="-1028" rx="116.18" ry="18"/>
<text text-anchor="middle" x="116.34" y="-1024.3" font-family="Arial" font-size="14.00" fill="white">fetch_schwab_quote_close</text>
</g>
<!-- gex_levels.fetch_yfinance_data._download_options -->
<g id="node20" class="node">
<title>gex_levels.fetch_yfinance_data._download_options</title>
<ellipse fill="#757575" stroke="black" cx="373.32" cy="-1082" rx="86.38" ry="18"/>
<text text-anchor="middle" x="373.32" y="-1078.3" font-family="Arial" font-size="14.00" fill="white">_download_options</text>
</g>
<!-- gex_levels.fetch_yfinance_data.collect_chain -->
<g id="node21" class="node">
<title>gex_levels.fetch_yfinance_data.collect_chain</title>
<ellipse fill="#00c853" stroke="black" cx="116.34" cy="-1082" rx="61.99" ry="18"/>
<text text-anchor="middle" x="116.34" y="-1078.3" font-family="Arial" font-size="14.00" fill="white">collect_chain</text>
</g>
<!-- gex_levels.fetch_yfinance_data.collect_chain&#45;&gt;gex_levels.fetch_yfinance_data._download_options -->
<g id="edge11" class="edge">
<title>gex_levels.fetch_yfinance_data.collect_chain&#45;&gt;gex_levels.fetch_yfinance_data._download_options</title>
<path fill="none" stroke="#616161" d="M178.09,-1082C207.46,-1082 243.41,-1082 276.36,-1082"/>
<polygon fill="#616161" stroke="#616161" points="276.48,-1085.5 286.48,-1082 276.48,-1078.5 276.48,-1085.5"/>
</g>
<!-- gex_levels.gex.gex_calculations.apply_hysteresis -->
<g id="node22" class="node">
<title>gex_levels.gex.gex_calculations.apply_hysteresis</title>
<ellipse fill="#00c853" stroke="black" cx="621.2" cy="-1406" rx="76.09" ry="18"/>
<text text-anchor="middle" x="621.2" y="-1402.3" font-family="Arial" font-size="14.00" fill="white">apply_hysteresis</text>
</g>
<!-- gex_levels.gex.gex_calculations.compute_cpr -->
<g id="node23" class="node">
<title>gex_levels.gex.gex_calculations.compute_cpr</title>
<ellipse fill="#00c853" stroke="black" cx="621.2" cy="-1352" rx="61.99" ry="18"/>
<text text-anchor="middle" x="621.2" y="-1348.3" font-family="Arial" font-size="14.00" fill="white">compute_cpr</text>
</g>
<!-- gex_levels.gex.gex_calculations.compute_hvl -->
<g id="node24" class="node">
<title>gex_levels.gex.gex_calculations.compute_hvl</title>
<ellipse fill="#00c853" stroke="black" cx="621.2" cy="-1298" rx="61.19" ry="18"/>
<text text-anchor="middle" x="621.2" y="-1294.3" font-family="Arial" font-size="14.00" fill="white">compute_hvl</text>
</g>
<!-- gex_levels.gex.gex_calculations.compute_max_pain -->
<g id="node25" class="node">
<title>gex_levels.gex.gex_calculations.compute_max_pain</title>
<ellipse fill="#00c853" stroke="black" cx="621.2" cy="-1244" rx="88.28" ry="18"/>
<text text-anchor="middle" x="621.2" y="-1240.3" font-family="Arial" font-size="14.00" fill="white">compute_max_pain</text>
</g>
<!-- gex_levels.gex.gex_calculations.compute_net_dex -->
<g id="node26" class="node">
<title>gex_levels.gex.gex_calculations.compute_net_dex</title>
<ellipse fill="#00c853" stroke="black" cx="621.2" cy="-1190" rx="81.49" ry="18"/>
<text text-anchor="middle" x="621.2" y="-1186.3" font-family="Arial" font-size="14.00" fill="white">compute_net_dex</text>
</g>
<!-- gex_levels.gex.gex_calculations.compute_per_strike_gex -->
<g id="node27" class="node">
<title>gex_levels.gex.gex_calculations.compute_per_strike_gex</title>
<ellipse fill="#00c853" stroke="black" cx="621.2" cy="-1136" rx="107.48" ry="18"/>
<text text-anchor="middle" x="621.2" y="-1132.3" font-family="Arial" font-size="14.00" fill="white">compute_per_strike_gex</text>
</g>
<!-- gex_levels.gex.gex_calculations.compute_skew_slope -->
<g id="node28" class="node">
<title>gex_levels.gex.gex_calculations.compute_skew_slope</title>
<ellipse fill="#00c853" stroke="black" cx="621.2" cy="-1082" rx="95.58" ry="18"/>
<text text-anchor="middle" x="621.2" y="-1078.3" font-family="Arial" font-size="14.00" fill="white">compute_skew_slope</text>
</g>
<!-- gex_levels.gex.gex_calculations.compute_vol_trigger -->
<g id="node29" class="node">
<title>gex_levels.gex.gex_calculations.compute_vol_trigger</title>
<ellipse fill="#00c853" stroke="black" cx="621.2" cy="-1028" rx="90.98" ry="18"/>
<text text-anchor="middle" x="621.2" y="-1024.3" font-family="Arial" font-size="14.00" fill="white">compute_vol_trigger</text>
</g>
<!-- gex_levels.gex.gex_calculations.compute_wall_zones -->
<g id="node30" class="node">
<title>gex_levels.gex.gex_calculations.compute_wall_zones</title>
<ellipse fill="#00c853" stroke="black" cx="621.2" cy="-974" rx="92.88" ry="18"/>
<text text-anchor="middle" x="621.2" y="-970.3" font-family="Arial" font-size="14.00" fill="white">compute_wall_zones</text>
</g>
<!-- gex_levels.gex.gex_calculations.derive_profile_levels -->
<g id="node31" class="node">
<title>gex_levels.gex.gex_calculations.derive_profile_levels</title>
<ellipse fill="#00c853" stroke="black" cx="373.32" cy="-1460" rx="90.98" ry="18"/>
<text text-anchor="middle" x="373.32" y="-1456.3" font-family="Arial" font-size="14.00" fill="white">derive_profile_levels</text>
</g>
<!-- gex_levels.gex.gex_calculations.derive_profile_levels.&lt;locals&gt;.next_levels -->
<g id="node32" class="node">
<title>gex_levels.gex.gex_calculations.derive_profile_levels.&lt;locals&gt;.next_levels</title>
<ellipse fill="#00c853" stroke="black" cx="621.2" cy="-1460" rx="54.69" ry="18"/>
<text text-anchor="middle" x="621.2" y="-1456.3" font-family="Arial" font-size="14.00" fill="white">next_levels</text>
</g>
<!-- gex_levels.gex.gex_calculations.derive_profile_levels&#45;&gt;gex_levels.gex.gex_calculations.derive_profile_levels.&lt;locals&gt;.next_levels -->
<g id="edge12" class="edge">
<title>gex_levels.gex.gex_calculations.derive_profile_levels&#45;&gt;gex_levels.gex.gex_calculations.derive_profile_levels.&lt;locals&gt;.next_levels</title>
<path fill="none" stroke="#616161" d="M464.48,-1460C495,-1460 528.42,-1460 556.45,-1460"/>
<polygon fill="#616161" stroke="#616161" points="556.52,-1463.5 566.52,-1460 556.52,-1456.5 556.52,-1463.5"/>
</g>
<!-- gex_levels.gex.gex_calculations.find_gamma_flip -->
<g id="node33" class="node">
<title>gex_levels.gex.gex_calculations.find_gamma_flip</title>
<ellipse fill="#00c853" stroke="black" cx="621.2" cy="-920" rx="76.09" ry="18"/>
<text text-anchor="middle" x="621.2" y="-916.3" font-family="Arial" font-size="14.00" fill="white">find_gamma_flip</text>
</g>
<!-- gex_levels.gex.gex_calculations.read_previous_etf_walls -->
<g id="node34" class="node">
<title>gex_levels.gex.gex_calculations.read_previous_etf_walls</title>
<ellipse fill="#00c853" stroke="black" cx="621.2" cy="-866" rx="105.08" ry="18"/>
<text text-anchor="middle" x="621.2" y="-862.3" font-family="Arial" font-size="14.00" fill="white">read_previous_etf_walls</text>
</g>
<!-- gex_levels.gex.gex_compute.compute_gex_levels -->
<g id="node35" class="node">
<title>gex_levels.gex.gex_compute.compute_gex_levels</title>
<ellipse fill="#00c853" stroke="black" cx="373.32" cy="-1136" rx="90.98" ry="18"/>
<text text-anchor="middle" x="373.32" y="-1132.3" font-family="Arial" font-size="14.00" fill="white">compute_gex_levels</text>
</g>
<!-- gex_levels.gex.gex_compute.compute_gex_levels&#45;&gt;gex_levels.gex.gex_calculations.apply_hysteresis -->
<g id="edge13" class="edge">
<title>gex_levels.gex.gex_compute.compute_gex_levels&#45;&gt;gex_levels.gex.gex_calculations.apply_hysteresis</title>
<path fill="none" stroke="#616161" d="M379.38,-1154.24C392.96,-1199.74 434.69,-1318.86 513.96,-1379 522.78,-1385.69 533.08,-1390.74 543.73,-1394.54"/>
<polygon fill="#616161" stroke="#616161" points="542.99,-1397.98 553.58,-1397.69 545.12,-1391.31 542.99,-1397.98"/>
</g>
<!-- gex_levels.gex.gex_compute.compute_gex_levels&#45;&gt;gex_levels.gex.gex_calculations.compute_cpr -->
<g id="edge14" class="edge">
<title>gex_levels.gex.gex_compute.compute_gex_levels&#45;&gt;gex_levels.gex.gex_calculations.compute_cpr</title>
<path fill="none" stroke="#616161" d="M382.39,-1154.06C400.28,-1191.97 447.08,-1280.06 513.96,-1325 525.96,-1333.06 540.19,-1338.72 554.28,-1342.69"/>
<polygon fill="#616161" stroke="#616161" points="553.42,-1346.08 563.98,-1345.17 555.16,-1339.3 553.42,-1346.08"/>
</g>
<!-- gex_levels.gex.gex_compute.compute_gex_levels&#45;&gt;gex_levels.gex.gex_calculations.compute_hvl -->
<g id="edge15" class="edge">
<title>gex_levels.gex.gex_compute.compute_gex_levels&#45;&gt;gex_levels.gex.gex_calculations.compute_hvl</title>
<path fill="none" stroke="#616161" d="M387.65,-1153.91C410.29,-1183.03 459.18,-1240.45 513.96,-1271 526.93,-1278.23 541.85,-1283.56 556.34,-1287.48"/>
<polygon fill="#616161" stroke="#616161" points="555.72,-1290.93 566.27,-1289.97 557.43,-1284.14 555.72,-1290.93"/>
</g>
<!-- gex_levels.gex.gex_compute.compute_gex_levels&#45;&gt;gex_levels.gex.gex_calculations.compute_max_pain -->
<g id="edge16" class="edge">
<title>gex_levels.gex.gex_compute.compute_gex_levels&#45;&gt;gex_levels.gex.gex_calculations.compute_max_pain</title>
<path fill="none" stroke="#616161" d="M399.22,-1153.31C426.34,-1171.45 471.53,-1199.7 513.96,-1217 524.91,-1221.46 536.79,-1225.35 548.52,-1228.68"/>
<polygon fill="#616161" stroke="#616161" points="547.74,-1232.09 558.31,-1231.34 549.58,-1225.34 547.74,-1232.09"/>
</g>
<!-- gex_levels.gex.gex_compute.compute_gex_levels&#45;&gt;gex_levels.gex.gex_calculations.compute_net_dex -->
<g id="edge17" class="edge">
<title>gex_levels.gex.gex_compute.compute_gex_levels&#45;&gt;gex_levels.gex.gex_calculations.compute_net_dex</title>
<path fill="none" stroke="#616161" d="M434.78,-1149.28C470.53,-1157.13 515.87,-1167.09 552.76,-1175.19"/>
<polygon fill="#616161" stroke="#616161" points="552.41,-1178.7 562.93,-1177.42 553.91,-1171.86 552.41,-1178.7"/>
</g>
<!-- gex_levels.gex.gex_compute.compute_gex_levels&#45;&gt;gex_levels.gex.gex_calculations.compute_per_strike_gex -->
<g id="edge18" class="edge">
<title>gex_levels.gex.gex_compute.compute_gex_levels&#45;&gt;gex_levels.gex.gex_calculations.compute_per_strike_gex</title>
<path fill="none" stroke="#616161" d="M464.48,-1136C477.26,-1136 490.55,-1136 503.74,-1136"/>
<polygon fill="#616161" stroke="#616161" points="503.79,-1139.5 513.79,-1136 503.79,-1132.5 503.79,-1139.5"/>
</g>
<!-- gex_levels.gex.gex_compute.compute_gex_levels&#45;&gt;gex_levels.gex.gex_calculations.compute_skew_slope -->
<g id="edge19" class="edge">
<title>gex_levels.gex.gex_compute.compute_gex_levels&#45;&gt;gex_levels.gex.gex_calculations.compute_skew_slope</title>
<path fill="none" stroke="#616161" d="M434.78,-1122.72C469.1,-1115.19 512.25,-1105.71 548.3,-1097.79"/>
<polygon fill="#616161" stroke="#616161" points="549.24,-1101.17 558.26,-1095.6 547.74,-1094.33 549.24,-1101.17"/>
</g>
<!-- gex_levels.gex.gex_compute.compute_gex_levels&#45;&gt;gex_levels.gex.gex_calculations.compute_vol_trigger -->
<g id="edge20" class="edge">
<title>gex_levels.gex.gex_compute.compute_gex_levels&#45;&gt;gex_levels.gex.gex_calculations.compute_vol_trigger</title>
<path fill="none" stroke="#616161" d="M445.41,-1124.87C456.94,-1121.04 468.27,-1115.9 477.96,-1109 501.46,-1092.27 490.42,-1071.66 513.96,-1055 521.38,-1049.75 529.72,-1045.52 538.39,-1042.11"/>
<polygon fill="#616161" stroke="#616161" points="539.65,-1045.38 547.89,-1038.73 537.3,-1038.79 539.65,-1045.38"/>
</g>
<!-- gex_levels.gex.gex_compute.compute_gex_levels&#45;&gt;gex_levels.gex.gex_calculations.compute_wall_zones -->
<g id="edge21" class="edge">
<title>gex_levels.gex.gex_compute.compute_gex_levels&#45;&gt;gex_levels.gex.gex_calculations.compute_wall_zones</title>
<path fill="none" stroke="#616161" d="M449.49,-1126.05C459.96,-1122.06 469.88,-1116.56 477.96,-1109 514.91,-1074.44 476.9,-1035.45 513.96,-1001 519.74,-995.62 526.44,-991.28 533.61,-987.78"/>
<polygon fill="#616161" stroke="#616161" points="535.1,-990.95 542.9,-983.78 532.33,-984.52 535.1,-990.95"/>
</g>
<!-- gex_levels.gex.gex_compute.compute_gex_levels&#45;&gt;gex_levels.gex.gex_calculations.find_gamma_flip -->
<g id="edge22" class="edge">
<title>gex_levels.gex.gex_compute.compute_gex_levels&#45;&gt;gex_levels.gex.gex_calculations.find_gamma_flip</title>
<path fill="none" stroke="#616161" d="M450.98,-1126.46C461.06,-1122.39 470.47,-1116.76 477.96,-1109 529.16,-1055.91 462.6,-999.94 513.96,-947 521.29,-939.44 530.42,-933.89 540.22,-929.83"/>
<polygon fill="#616161" stroke="#616161" points="541.56,-933.07 549.78,-926.38 539.19,-926.48 541.56,-933.07"/>
</g>
<!-- gex_levels.gex.gex_compute.compute_gex_levels&#45;&gt;gex_levels.gex.gex_calculations.read_previous_etf_walls -->
<g id="edge23" class="edge">
<title>gex_levels.gex.gex_compute.compute_gex_levels&#45;&gt;gex_levels.gex.gex_calculations.read_previous_etf_walls</title>
<path fill="none" stroke="#616161" d="M451.61,-1126.71C461.55,-1122.6 470.75,-1116.89 477.96,-1109 543.62,-1037.17 448.08,-964.64 513.96,-893 518.05,-888.56 522.75,-884.8 527.85,-881.63"/>
<polygon fill="#616161" stroke="#616161" points="529.64,-884.65 536.79,-876.83 526.32,-878.48 529.64,-884.65"/>
</g>
<!-- gex_levels.main.main -->
<g id="node36" class="node">
<title>gex_levels.main.main</title>
<ellipse fill="#00c853" stroke="black" cx="116.34" cy="-1136" rx="30.59" ry="18"/>
<text text-anchor="middle" x="116.34" y="-1132.3" font-family="Arial" font-size="14.00" fill="white">main</text>
</g>
<!-- gex_levels.main.main&#45;&gt;gex_levels.gex.gex_compute.compute_gex_levels -->
<g id="edge24" class="edge">
<title>gex_levels.main.main&#45;&gt;gex_levels.gex.gex_compute.compute_gex_levels</title>
<path fill="none" stroke="#616161" d="M147.09,-1136C177.74,-1136 227.24,-1136 272.04,-1136"/>
<polygon fill="#616161" stroke="#616161" points="272.11,-1139.5 282.11,-1136 272.11,-1132.5 272.11,-1139.5"/>
</g>
<!-- gex_levels.oi_churn._refresh_schwab_token -->
<g id="node37" class="node">
<title>gex_levels.oi_churn._refresh_schwab_token</title>
<ellipse fill="#757575" stroke="black" cx="621.2" cy="-488" rx="103.98" ry="18"/>
<text text-anchor="middle" x="621.2" y="-484.3" font-family="Arial" font-size="14.00" fill="white">_refresh_schwab_token</text>
</g>
<!-- gex_levels.oi_churn.bucket_row -->
<g id="node38" class="node">
<title>gex_levels.oi_churn.bucket_row</title>
<ellipse fill="#00c853" stroke="black" cx="373.32" cy="-180" rx="55.79" ry="18"/>
<text text-anchor="middle" x="373.32" y="-176.3" font-family="Arial" font-size="14.00" fill="white">bucket_row</text>
</g>
<!-- gex_levels.oi_churn.bucket_summary -->
<g id="node39" class="node">
<title>gex_levels.oi_churn.bucket_summary</title>
<ellipse fill="#00c853" stroke="black" cx="373.32" cy="-126" rx="78.79" ry="18"/>
<text text-anchor="middle" x="373.32" y="-122.3" font-family="Arial" font-size="14.00" fill="white">bucket_summary</text>
</g>
<!-- gex_levels.oi_churn.compute_churn -->
<g id="node40" class="node">
<title>gex_levels.oi_churn.compute_churn</title>
<ellipse fill="#00c853" stroke="black" cx="373.32" cy="-72" rx="71.49" ry="18"/>
<text text-anchor="middle" x="373.32" y="-68.3" font-family="Arial" font-size="14.00" fill="white">compute_churn</text>
</g>
<!-- gex_levels.oi_churn.fetch_schwab_chain -->
<g id="node41" class="node">
<title>gex_levels.oi_churn.fetch_schwab_chain</title>
<ellipse fill="#00c853" stroke="black" cx="373.32" cy="-488" rx="90.18" ry="18"/>
<text text-anchor="middle" x="373.32" y="-484.3" font-family="Arial" font-size="14.00" fill="white">fetch_schwab_chain</text>
</g>
<!-- gex_levels.oi_churn.fetch_schwab_chain&#45;&gt;gex_levels.api_auth_schwab.schwab_get.&lt;locals&gt;._request -->
<g id="edge25" class="edge">
<title>gex_levels.oi_churn.fetch_schwab_chain&#45;&gt;gex_levels.api_auth_schwab.schwab_get.&lt;locals&gt;._request</title>
<path fill="none" stroke="#616161" d="M450.16,-497.62C460.48,-501.66 470.18,-507.27 477.96,-515 522,-558.78 469.8,-606.35 513.96,-650 527.84,-663.72 547.66,-670.78 566.42,-674.32"/>
<polygon fill="#616161" stroke="#616161" points="565.97,-677.79 576.39,-675.9 567.06,-670.87 565.97,-677.79"/>
</g>
<!-- gex_levels.oi_churn.fetch_schwab_chain&#45;&gt;gex_levels.oi_churn._refresh_schwab_token -->
<g id="edge26" class="edge">
<title>gex_levels.oi_churn.fetch_schwab_chain&#45;&gt;gex_levels.oi_churn._refresh_schwab_token</title>
<path fill="none" stroke="#616161" d="M463.78,-488C477.84,-488 492.53,-488 507.04,-488"/>
<polygon fill="#616161" stroke="#616161" points="507.04,-491.5 517.04,-488 507.04,-484.5 507.04,-491.5"/>
</g>
<!-- gex_levels.oi_churn.fetch_schwab_chain.&lt;locals&gt;._request -->
<g id="node42" class="node">
<title>gex_levels.oi_churn.fetch_schwab_chain.&lt;locals&gt;._request</title>
<ellipse fill="#757575" stroke="black" cx="116.34" cy="-1568" rx="44.69" ry="18"/>
<text text-anchor="middle" x="116.34" y="-1564.3" font-family="Arial" font-size="14.00" fill="white">_request</text>
</g>
<!-- gex_levels.oi_churn.latest_prior_session -->
<g id="node43" class="node">
<title>gex_levels.oi_churn.latest_prior_session</title>
<ellipse fill="#00c853" stroke="black" cx="373.32" cy="-18" rx="89.08" ry="18"/>
<text text-anchor="middle" x="373.32" y="-14.3" font-family="Arial" font-size="14.00" fill="white">latest_prior_session</text>
</g>
<!-- gex_levels.oi_churn.load_history -->
<g id="node44" class="node">
<title>gex_levels.oi_churn.load_history</title>
<ellipse fill="#00c853" stroke="black" cx="373.32" cy="-396" rx="57.69" ry="18"/>
<text text-anchor="middle" x="373.32" y="-392.3" font-family="Arial" font-size="14.00" fill="white">load_history</text>
</g>
<!-- gex_levels.oi_churn.state_path -->
<g id="node49" class="node">
<title>gex_levels.oi_churn.state_path</title>
<ellipse fill="#00c853" stroke="black" cx="621.2" cy="-396" rx="51.99" ry="18"/>
<text text-anchor="middle" x="621.2" y="-392.3" font-family="Arial" font-size="14.00" fill="white">state_path</text>
</g>
<!-- gex_levels.oi_churn.load_history&#45;&gt;gex_levels.oi_churn.state_path -->
<g id="edge27" class="edge">
<title>gex_levels.oi_churn.load_history&#45;&gt;gex_levels.oi_churn.state_path</title>
<path fill="none" stroke="#616161" d="M431.35,-396C469.51,-396 519.69,-396 558.73,-396"/>
<polygon fill="#616161" stroke="#616161" points="558.92,-399.5 568.92,-396 558.92,-392.5 558.92,-399.5"/>
</g>
<!-- gex_levels.oi_churn.main -->
<g id="node45" class="node">
<title>gex_levels.oi_churn.main</title>
<ellipse fill="#00c853" stroke="black" cx="116.34" cy="-261" rx="30.59" ry="18"/>
<text text-anchor="middle" x="116.34" y="-257.3" font-family="Arial" font-size="14.00" fill="white">main</text>
</g>
<!-- gex_levels.oi_churn.main&#45;&gt;gex_levels.oi_churn.bucket_row -->
<g id="edge28" class="edge">
<title>gex_levels.oi_churn.main&#45;&gt;gex_levels.oi_churn.bucket_row</title>
<path fill="none" stroke="#616161" d="M142.28,-251.34C172.1,-239.97 223.62,-220.88 268.68,-207 284.65,-202.08 302.17,-197.29 318.2,-193.14"/>
<polygon fill="#616161" stroke="#616161" points="319.13,-196.52 327.95,-190.65 317.4,-189.73 319.13,-196.52"/>
</g>
<!-- gex_levels.oi_churn.main&#45;&gt;gex_levels.oi_churn.bucket_summary -->
<g id="edge29" class="edge">
<title>gex_levels.oi_churn.main&#45;&gt;gex_levels.oi_churn.bucket_summary</title>
<path fill="none" stroke="#616161" d="M133.75,-246.15C160.23,-222.94 214.88,-178.15 268.68,-153 279.4,-147.99 291.21,-143.8 302.88,-140.33"/>
<polygon fill="#616161" stroke="#616161" points="303.96,-143.66 312.64,-137.59 302.06,-136.92 303.96,-143.66"/>
</g>
<!-- gex_levels.oi_churn.main&#45;&gt;gex_levels.oi_churn.compute_churn -->
<g id="edge30" class="edge">
<title>gex_levels.oi_churn.main&#45;&gt;gex_levels.oi_churn.compute_churn</title>
<path fill="none" stroke="#616161" d="M128.04,-244.33C150.14,-211.3 204.2,-137.4 268.68,-99 279.04,-92.83 290.8,-88.05 302.59,-84.36"/>
<polygon fill="#616161" stroke="#616161" points="303.83,-87.65 312.46,-81.51 301.89,-80.92 303.83,-87.65"/>
</g>
<!-- gex_levels.oi_churn.main&#45;&gt;gex_levels.oi_churn.fetch_schwab_chain -->
<g id="edge31" class="edge">
<title>gex_levels.oi_churn.main&#45;&gt;gex_levels.oi_churn.fetch_schwab_chain</title>
<path fill="none" stroke="#616161" d="M125.93,-278.2C145.73,-316.11 198.37,-407.37 268.68,-456 278.02,-462.46 288.72,-467.66 299.61,-471.82"/>
<polygon fill="#616161" stroke="#616161" points="298.61,-475.18 309.2,-475.22 300.95,-468.58 298.61,-475.18"/>
</g>
<!-- gex_levels.oi_churn.main&#45;&gt;gex_levels.oi_churn.latest_prior_session -->
<g id="edge32" class="edge">
<title>gex_levels.oi_churn.main&#45;&gt;gex_levels.oi_churn.latest_prior_session</title>
<path fill="none" stroke="#616161" d="M124.43,-243.57C142.16,-202.27 192.53,-97.91 268.68,-45 276.08,-39.86 284.39,-35.69 293.01,-32.32"/>
<polygon fill="#616161" stroke="#616161" points="294.2,-35.62 302.45,-28.97 291.85,-29.02 294.2,-35.62"/>
</g>
<!-- gex_levels.oi_churn.main&#45;&gt;gex_levels.oi_churn.load_history -->
<g id="edge33" class="edge">
<title>gex_levels.oi_churn.main&#45;&gt;gex_levels.oi_churn.load_history</title>
<path fill="none" stroke="#616161" d="M133.75,-275.85C160.23,-299.06 214.88,-343.85 268.68,-369 282.5,-375.46 298.11,-380.56 312.94,-384.49"/>
<polygon fill="#616161" stroke="#616161" points="312.5,-387.99 323.06,-387.04 314.21,-381.2 312.5,-387.99"/>
</g>
<!-- gex_levels.oi_churn.parse_chain -->
<g id="node46" class="node">
<title>gex_levels.oi_churn.parse_chain</title>
<ellipse fill="#00c853" stroke="black" cx="373.32" cy="-342" rx="58.49" ry="18"/>
<text text-anchor="middle" x="373.32" y="-338.3" font-family="Arial" font-size="14.00" fill="white">parse_chain</text>
</g>
<!-- gex_levels.oi_churn.main&#45;&gt;gex_levels.oi_churn.parse_chain -->
<g id="edge34" class="edge">
<title>gex_levels.oi_churn.main&#45;&gt;gex_levels.oi_churn.parse_chain</title>
<path fill="none" stroke="#616161" d="M142.28,-270.66C172.1,-282.03 223.62,-301.12 268.68,-315 284.13,-319.76 301.04,-324.4 316.64,-328.45"/>
<polygon fill="#616161" stroke="#616161" points="316.12,-331.93 326.67,-331.03 317.86,-325.15 316.12,-331.93"/>
</g>
<!-- gex_levels.oi_churn.print_table -->
<g id="node47" class="node">
<title>gex_levels.oi_churn.print_table</title>
<ellipse fill="#00c853" stroke="black" cx="373.32" cy="-288" rx="51.99" ry="18"/>
<text text-anchor="middle" x="373.32" y="-284.3" font-family="Arial" font-size="14.00" fill="white">print_table</text>
</g>
<!-- gex_levels.oi_churn.main&#45;&gt;gex_levels.oi_churn.print_table -->
<g id="edge35" class="edge">
<title>gex_levels.oi_churn.main&#45;&gt;gex_levels.oi_churn.print_table</title>
<path fill="none" stroke="#616161" d="M146.59,-264.1C187.06,-268.38 261.04,-276.22 313.26,-281.75"/>
<polygon fill="#616161" stroke="#616161" points="313.08,-285.25 323.39,-282.82 313.82,-278.29 313.08,-285.25"/>
</g>
<!-- gex_levels.oi_churn.save_today -->
<g id="node48" class="node">
<title>gex_levels.oi_churn.save_today</title>
<ellipse fill="#00c853" stroke="black" cx="373.32" cy="-234" rx="55.79" ry="18"/>
<text text-anchor="middle" x="373.32" y="-230.3" font-family="Arial" font-size="14.00" fill="white">save_today</text>
</g>
<!-- gex_levels.oi_churn.main&#45;&gt;gex_levels.oi_churn.save_today -->
<g id="edge36" class="edge">
<title>gex_levels.oi_churn.main&#45;&gt;gex_levels.oi_churn.save_today</title>
<path fill="none" stroke="#616161" d="M146.59,-257.9C186.2,-253.71 257.92,-246.11 309.9,-240.61"/>
<polygon fill="#616161" stroke="#616161" points="310.45,-244.07 320.02,-239.54 309.71,-237.11 310.45,-244.07"/>
</g>
<!-- gex_levels.oi_churn.main&#45;&gt;gex_levels.oi_churn.state_path -->
<g id="edge37" class="edge">
<title>gex_levels.oi_churn.main&#45;&gt;gex_levels.oi_churn.state_path</title>
<path fill="none" stroke="#616161" d="M126.67,-278.04C147,-313.15 199.13,-392.8 268.68,-423 371.29,-467.56 506.55,-434.73 575.55,-412.31"/>
<polygon fill="#616161" stroke="#616161" points="576.85,-415.56 585.23,-409.08 574.64,-408.92 576.85,-415.56"/>
</g>
<!-- gex_levels.oi_churn.save_today&#45;&gt;gex_levels.oi_churn.state_path -->
<g id="edge38" class="edge">
<title>gex_levels.oi_churn.save_today&#45;&gt;gex_levels.oi_churn.state_path</title>
<path fill="none" stroke="#616161" d="M423.98,-241.62C441.75,-245.69 461.46,-251.84 477.96,-261 528.83,-289.26 575.18,-339.97 600.37,-370.55"/>
<polygon fill="#616161" stroke="#616161" points="597.89,-373.04 606.9,-378.6 603.32,-368.63 597.89,-373.04"/>
</g>
<!-- gex_levels.otm_call_flow_spx.collect_otm_calls -->
<g id="node50" class="node">
<title>gex_levels.otm_call_flow_spx.collect_otm_calls</title>
<ellipse fill="#00c853" stroke="black" cx="373.32" cy="-1892" rx="77.99" ry="18"/>
<text text-anchor="middle" x="373.32" y="-1888.3" font-family="Arial" font-size="14.00" fill="white">collect_otm_calls</text>
</g>
<!-- gex_levels.otm_call_flow_spx.compute_metrics -->
<g id="node51" class="node">
<title>gex_levels.otm_call_flow_spx.compute_metrics</title>
<ellipse fill="#00c853" stroke="black" cx="373.32" cy="-1838" rx="78.79" ry="18"/>
<text text-anchor="middle" x="373.32" y="-1834.3" font-family="Arial" font-size="14.00" fill="white">compute_metrics</text>
</g>
<!-- gex_levels.otm_call_flow_spx.compute_metrics.&lt;locals&gt;.bucket -->
<g id="node52" class="node">
<title>gex_levels.otm_call_flow_spx.compute_metrics.&lt;locals&gt;.bucket</title>
<ellipse fill="#00c853" stroke="black" cx="621.2" cy="-1838" rx="36.29" ry="18"/>
<text text-anchor="middle" x="621.2" y="-1834.3" font-family="Arial" font-size="14.00" fill="white">bucket</text>
</g>
<!-- gex_levels.otm_call_flow_spx.compute_metrics&#45;&gt;gex_levels.otm_call_flow_spx.compute_metrics.&lt;locals&gt;.bucket -->
<g id="edge39" class="edge">
<title>gex_levels.otm_call_flow_spx.compute_metrics&#45;&gt;gex_levels.otm_call_flow_spx.compute_metrics.&lt;locals&gt;.bucket</title>
<path fill="none" stroke="#616161" d="M452.12,-1838C492.41,-1838 540.21,-1838 574.52,-1838"/>
<polygon fill="#616161" stroke="#616161" points="574.71,-1841.5 584.71,-1838 574.71,-1834.5 574.71,-1841.5"/>
</g>
<!-- gex_levels.otm_call_flow_spx.determine_signal -->
<g id="node53" class="node">
<title>gex_levels.otm_call_flow_spx.determine_signal</title>
<ellipse fill="#00c853" stroke="black" cx="373.32" cy="-1784" rx="77.99" ry="18"/>
<text text-anchor="middle" x="373.32" y="-1780.3" font-family="Arial" font-size="14.00" fill="white">determine_signal</text>
</g>
<!-- gex_levels.otm_call_flow_spx.fetch_spot -->
<g id="node54" class="node">
<title>gex_levels.otm_call_flow_spx.fetch_spot</title>
<ellipse fill="#00c853" stroke="black" cx="373.32" cy="-1730" rx="51.19" ry="18"/>
<text text-anchor="middle" x="373.32" y="-1726.3" font-family="Arial" font-size="14.00" fill="white">fetch_spot</text>
</g>
<!-- gex_levels.otm_call_flow_spx.fmt_bn -->
<g id="node55" class="node">
<title>gex_levels.otm_call_flow_spx.fmt_bn</title>
<ellipse fill="#00c853" stroke="black" cx="373.32" cy="-1676" rx="38.19" ry="18"/>
<text text-anchor="middle" x="373.32" y="-1672.3" font-family="Arial" font-size="14.00" fill="white">fmt_bn</text>
</g>
<!-- gex_levels.otm_call_flow_spx.load_prior -->
<g id="node56" class="node">
<title>gex_levels.otm_call_flow_spx.load_prior</title>
<ellipse fill="#00c853" stroke="black" cx="373.32" cy="-1622" rx="50.09" ry="18"/>
<text text-anchor="middle" x="373.32" y="-1618.3" font-family="Arial" font-size="14.00" fill="white">load_prior</text>
</g>
<!-- gex_levels.otm_call_flow_spx.main -->
<g id="node57" class="node">
<title>gex_levels.otm_call_flow_spx.main</title>
<ellipse fill="#00c853" stroke="black" cx="116.34" cy="-1703" rx="30.59" ry="18"/>
<text text-anchor="middle" x="116.34" y="-1699.3" font-family="Arial" font-size="14.00" fill="white">main</text>
</g>
<!-- gex_levels.otm_call_flow_spx.main&#45;&gt;gex_levels.otm_call_flow_spx.collect_otm_calls -->
<g id="edge40" class="edge">
<title>gex_levels.otm_call_flow_spx.main&#45;&gt;gex_levels.otm_call_flow_spx.collect_otm_calls</title>
<path fill="none" stroke="#616161" d="M128.04,-1719.67C150.14,-1752.7 204.2,-1826.6 268.68,-1865 278.1,-1870.61 288.67,-1875.07 299.38,-1878.6"/>
<polygon fill="#616161" stroke="#616161" points="298.62,-1882.03 309.21,-1881.6 300.67,-1875.34 298.62,-1882.03"/>
</g>
<!-- gex_levels.otm_call_flow_spx.main&#45;&gt;gex_levels.otm_call_flow_spx.compute_metrics -->
<g id="edge41" class="edge">
<title>gex_levels.otm_call_flow_spx.main&#45;&gt;gex_levels.otm_call_flow_spx.compute_metrics</title>
<path fill="none" stroke="#616161" d="M133.75,-1717.85C160.23,-1741.06 214.88,-1785.85 268.68,-1811 279.4,-1816.01 291.21,-1820.2 302.88,-1823.67"/>
<polygon fill="#616161" stroke="#616161" points="302.06,-1827.08 312.64,-1826.41 303.96,-1820.34 302.06,-1827.08"/>
</g>
<!-- gex_levels.otm_call_flow_spx.main&#45;&gt;gex_levels.otm_call_flow_spx.determine_signal -->
<g id="edge42" class="edge">
<title>gex_levels.otm_call_flow_spx.main&#45;&gt;gex_levels.otm_call_flow_spx.determine_signal</title>
<path fill="none" stroke="#616161" d="M142.28,-1712.66C172.1,-1724.03 223.62,-1743.12 268.68,-1757 281.57,-1760.97 295.47,-1764.86 308.78,-1768.39"/>
<polygon fill="#616161" stroke="#616161" points="308.25,-1771.87 318.81,-1771.02 310.02,-1765.1 308.25,-1771.87"/>
</g>
<!-- gex_levels.otm_call_flow_spx.main&#45;&gt;gex_levels.otm_call_flow_spx.fetch_spot -->
<g id="edge43" class="edge">
<title>gex_levels.otm_call_flow_spx.main&#45;&gt;gex_levels.otm_call_flow_spx.fetch_spot</title>
<path fill="none" stroke="#616161" d="M146.59,-1706.1C187.18,-1710.4 261.49,-1718.26 313.73,-1723.8"/>
<polygon fill="#616161" stroke="#616161" points="313.56,-1727.3 323.87,-1724.87 314.29,-1720.34 313.56,-1727.3"/>
</g>
<!-- gex_levels.otm_call_flow_spx.main&#45;&gt;gex_levels.otm_call_flow_spx.fmt_bn -->
<g id="edge44" class="edge">
<title>gex_levels.otm_call_flow_spx.main&#45;&gt;gex_levels.otm_call_flow_spx.fmt_bn</title>
<path fill="none" stroke="#616161" d="M146.59,-1699.9C190.37,-1695.27 273.37,-1686.48 325.61,-1680.95"/>
<polygon fill="#616161" stroke="#616161" points="326.05,-1684.42 335.62,-1679.89 325.31,-1677.46 326.05,-1684.42"/>
</g>
<!-- gex_levels.otm_call_flow_spx.main&#45;&gt;gex_levels.otm_call_flow_spx.load_prior -->
<g id="edge45" class="edge">
<title>gex_levels.otm_call_flow_spx.main&#45;&gt;gex_levels.otm_call_flow_spx.load_prior</title>
<path fill="none" stroke="#616161" d="M142.28,-1693.34C172.1,-1681.97 223.62,-1662.88 268.68,-1649 285.76,-1643.74 304.63,-1638.62 321.53,-1634.28"/>
<polygon fill="#616161" stroke="#616161" points="322.4,-1637.67 331.23,-1631.82 320.68,-1630.89 322.4,-1637.67"/>
</g>
<!-- gex_levels.otm_call_flow_spx.print_pinescript_block -->
<g id="node58" class="node">
<title>gex_levels.otm_call_flow_spx.print_pinescript_block</title>
<ellipse fill="#00c853" stroke="black" cx="373.32" cy="-1568" rx="95.58" ry="18"/>
<text text-anchor="middle" x="373.32" y="-1564.3" font-family="Arial" font-size="14.00" fill="white">print_pinescript_block</text>
</g>
<!-- gex_levels.otm_call_flow_spx.main&#45;&gt;gex_levels.otm_call_flow_spx.print_pinescript_block -->
<g id="edge46" class="edge">
<title>gex_levels.otm_call_flow_spx.main&#45;&gt;gex_levels.otm_call_flow_spx.print_pinescript_block</title>
<path fill="none" stroke="#616161" d="M133.75,-1688.15C160.23,-1664.94 214.88,-1620.15 268.68,-1595 277.71,-1590.78 287.51,-1587.14 297.35,-1584.03"/>
<polygon fill="#616161" stroke="#616161" points="298.61,-1587.3 307.18,-1581.08 296.6,-1580.6 298.61,-1587.3"/>
</g>
<!-- gex_levels.otm_call_flow_spx.save_state -->
<g id="node59" class="node">
<title>gex_levels.otm_call_flow_spx.save_state</title>
<ellipse fill="#00c853" stroke="black" cx="373.32" cy="-1514" rx="53.09" ry="18"/>
<text text-anchor="middle" x="373.32" y="-1510.3" font-family="Arial" font-size="14.00" fill="white">save_state</text>
</g>
<!-- gex_levels.otm_call_flow_spx.main&#45;&gt;gex_levels.otm_call_flow_spx.save_state -->
<g id="edge47" class="edge">
<title>gex_levels.otm_call_flow_spx.main&#45;&gt;gex_levels.otm_call_flow_spx.save_state</title>
<path fill="none" stroke="#616161" d="M135.35,-1688.4C159.14,-1668.64 201.64,-1631.62 232.68,-1595 251.33,-1573 245.18,-1557.73 268.68,-1541 281.54,-1531.84 297.27,-1525.79 312.55,-1521.79"/>
<polygon fill="#616161" stroke="#616161" points="313.56,-1525.15 322.49,-1519.44 311.96,-1518.33 313.56,-1525.15"/>
</g>
<!-- gex_levels.output_gex_file.write_gex_file -->
<g id="node60" class="node">
<title>gex_levels.output_gex_file.write_gex_file</title>
<ellipse fill="#00c853" stroke="black" cx="116.34" cy="-1946" rx="64.19" ry="18"/>
<text text-anchor="middle" x="116.34" y="-1942.3" font-family="Arial" font-size="14.00" fill="white">write_gex_file</text>
</g>
<!-- gex_levels.output_gex_file.write_gex_file.&lt;locals&gt;.build_section -->
<g id="node61" class="node">
<title>gex_levels.output_gex_file.write_gex_file.&lt;locals&gt;.build_section</title>
<ellipse fill="#00c853" stroke="black" cx="373.32" cy="-1946" rx="61.99" ry="18"/>
<text text-anchor="middle" x="373.32" y="-1942.3" font-family="Arial" font-size="14.00" fill="white">build_section</text>
</g>
<!-- gex_levels.output_gex_file.write_gex_file&#45;&gt;gex_levels.output_gex_file.write_gex_file.&lt;locals&gt;.build_section -->
<g id="edge48" class="edge">
<title>gex_levels.output_gex_file.write_gex_file&#45;&gt;gex_levels.output_gex_file.write_gex_file.&lt;locals&gt;.build_section</title>
<path fill="none" stroke="#616161" d="M180.7,-1946C217.23,-1946 263.27,-1946 301.06,-1946"/>
<polygon fill="#616161" stroke="#616161" points="301.49,-1949.5 311.49,-1946 301.49,-1942.5 301.49,-1949.5"/>
</g>
<!-- gex_levels.output_gex_file.write_gex_file.&lt;locals&gt;.write_section -->
<g id="node62" class="node">
<title>gex_levels.output_gex_file.write_gex_file.&lt;locals&gt;.write_section</title>
<ellipse fill="#00c853" stroke="black" cx="116.34" cy="-2000" rx="61.99" ry="18"/>
<text text-anchor="middle" x="116.34" y="-1996.3" font-family="Arial" font-size="14.00" fill="white">write_section</text>
</g>
<!-- gex_levels.paths.get_project_root -->
<g id="node63" class="node">
<title>gex_levels.paths.get_project_root</title>
<ellipse fill="#00c853" stroke="black" cx="116.34" cy="-2054" rx="74.19" ry="18"/>
<text text-anchor="middle" x="116.34" y="-2050.3" font-family="Arial" font-size="14.00" fill="white">get_project_root</text>
</g>
<!-- gex_levels.pinescript_output._print_dte_section -->
<g id="node64" class="node">
<title>gex_levels.pinescript_output._print_dte_section</title>
<ellipse fill="#757575" stroke="black" cx="373.32" cy="-1406" rx="82.59" ry="18"/>
<text text-anchor="middle" x="373.32" y="-1402.3" font-family="Arial" font-size="14.00" fill="white">_print_dte_section</text>
</g>
<!-- gex_levels.pinescript_output.print_pinescript_block -->
<g id="node65" class="node">
<title>gex_levels.pinescript_output.print_pinescript_block</title>
<ellipse fill="#00c853" stroke="black" cx="116.34" cy="-1433" rx="95.58" ry="18"/>
<text text-anchor="middle" x="116.34" y="-1429.3" font-family="Arial" font-size="14.00" fill="white">print_pinescript_block</text>
</g>
<!-- gex_levels.pinescript_output.print_pinescript_block&#45;&gt;gex_levels.gex.gex_calculations.derive_profile_levels -->
<g id="edge49" class="edge">
<title>gex_levels.pinescript_output.print_pinescript_block&#45;&gt;gex_levels.gex.gex_calculations.derive_profile_levels</title>
<path fill="none" stroke="#616161" d="M200.12,-1441.77C226.43,-1444.55 255.64,-1447.64 282.42,-1450.48"/>
<polygon fill="#616161" stroke="#616161" points="282.24,-1453.98 292.56,-1451.55 282.98,-1447.02 282.24,-1453.98"/>
</g>
<!-- gex_levels.pinescript_output.print_pinescript_block&#45;&gt;gex_levels.pinescript_output._print_dte_section -->
<g id="edge50" class="edge">
<title>gex_levels.pinescript_output.print_pinescript_block&#45;&gt;gex_levels.pinescript_output._print_dte_section</title>
<path fill="none" stroke="#616161" d="M200.12,-1424.23C228.36,-1421.24 259.94,-1417.9 288.27,-1414.9"/>
<polygon fill="#616161" stroke="#616161" points="288.97,-1418.35 298.55,-1413.81 288.24,-1411.38 288.97,-1418.35"/>
</g>
<!-- gex_levels.rich_terminal_output.print_gex_summary -->
<g id="node66" class="node">
<title>gex_levels.rich_terminal_output.print_gex_summary</title>
<ellipse fill="#00c853" stroke="black" cx="116.34" cy="-2108" rx="89.08" ry="18"/>
<text text-anchor="middle" x="116.34" y="-2104.3" font-family="Arial" font-size="14.00" fill="white">print_gex_summary</text>
</g>
</g>
</svg>
